#!OML:ASF F:\VICON\USERDATA\INSTALL\Justin_Nancy\Justin_Nancy.ASF
:FULLY-SPECIFIED
:DEGREES
133
root 3.20331 16.3069 7.5594 -40.3391 -83.8747 55.3099
lowerback 7.6164 2.96246 0.609156
upperback 0.555981 4.03001 1.69542
thorax -3.76929 1.98878 0.97808
lowerneck -22.1067 -6.90803 -11.6773
upperneck 12.1406 -7.25619 8.12989
head 8.08146 -3.21655 3.62768
rclavicle 2.70347e-014 2.06736e-014
rhumerus -33.3358 20.0819 -98.8949
rradius 116.569
rwrist -14.0484
rhand -8.97427 22.1661
rfingers 7.12502
rthumb 16.9712 -7.1125
lclavicle 2.70347e-014 2.06736e-014
lhumerus -57.1543 -8.01994 98.1986
lradius 109.427
lwrist 28.4034
lhand -9.12651 10.6817
lfingers 7.12502
lthumb 16.8247 39.9728
rfemur -6.5645 3.25371 35.0058
rtibia 36.4471
rfoot -17.0616 -9.85849
rtoes -6.3465
lfemur -35.6237 12.966 -5.18587
ltibia 74.5619
lfoot -7.71979 -2.59673
ltoes -16.1271
134
root 2.60462 16.3106 7.62788 -122.618 -84.8466 137.777
lowerback 3.44998 5.26537 -1.22978
upperback 1.51775 6.95807 2.00336
thorax -0.758765 3.45816 2.43515
lowerneck -22.0135 -6.82861 -12.0969
upperneck 12.3998 -7.07698 8.30536
head 8.15836 -3.13784 3.78401
rclavicle 2.94201e-014 1.11319e-014
rhumerus -33.4521 21.3493 -99.3568
rradius 116.64
rwrist -13.8737
rhand -8.64723 22.1447
rfingers 7.12502
rthumb 17.286 -7.10651
lclavicle 2.94201e-014 1.11319e-014
lhumerus -57.5683 -6.59707 97.6673
lradius 109.38
lwrist 27.1974
lhand -9.20399 10.522
lfingers 7.12502
lthumb 16.7501 39.8195
rfemur -2.96821 8.75877 34.5662
rtibia 34.5328
rfoot -14.947 -7.86511
rtoes -8.77794
lfemur -32.7581 21.3636 -4.07562
ltibia 72.3691
lfoot -9.76094 -4.27081
ltoes -18.0653
135
root 2.59943 16.4864 7.76022 -42.4386 -85.2558 56.7654
lowerback 8.44702 2.96155 1.18097
upperback 0.438236 4.11134 2.21002
thorax -4.35628 2.0142 1.13442
lowerneck -22.0182 -6.7473 -12.4281
upperneck 12.8171 -6.90355 8.40168
head 8.29794 -3.06467 3.89842
rclavicle 2.42517e-014 4.29375e-014
rhumerus -33.637 22.3162 -99.4944
rradius 116.684
rwrist -14.1255
rhand -8.06356 22.2373
rfingers 7.12502
rthumb 17.8477 -6.96366
lclavicle 2.42517e-014 4.29375e-014
lhumerus -57.9707 -5.70219 97.5659
lradius 109.47
lwrist 27.6925
lhand -11.9735 10.8169
lfingers 7.12502
lthumb 14.0826 40.3197
rfemur -2.17762 3.82898 34.574
rtibia 32.7877
rfoot -12.6808 -7.26088
rtoes -7.10481
lfemur -37.4649 12.927 -5.32735
ltibia 70.783
lfoot -8.23752 -2.41656
ltoes -18.2041
136
root 2.37424 16.6543 7.96104 -21.0628 -81.0236 33.467
lowerback 11.4827 1.06143 3.87698
upperback 0.349333 1.98633 1.86493
thorax -6.0152 0.868563 -0.548665
lowerneck -21.9269 -6.77671 -12.4473
upperneck 13.0659 -6.95309 8.3511
head 8.3713 -3.09743 3.8792
rclavicle -1.94809e-014 -1.90833e-014
rhumerus -33.8846 22.6882 -99.2816
rradius 116.739
rwrist -14.4111
rhand -7.88414 22.6681
rfingers 7.12502
rthumb 18.0203 -6.51705
lclavicle -1.94809e-014 -1.90833e-014
lhumerus -58.0776 -4.86276 96.4785
lradius 108.908
lwrist 24.4113
lhand -6.72061 9.9034
lfingers 7.12502
lthumb 19.1395 38.9816
rfemur 0.12969 -0.694185 32.9464
rtibia 31.1545
rfoot -10.2436 -5.52472
rtoes -6.54645
lfemur -39.2319 3.96499 -7.09327
ltibia 68.567
lfoot -7.01571 0.215559
ltoes -16.7695
137
root 2.06301 16.7281 8.02408 -18.4485 -81.7491 30.9981
lowerback 11.437 1.28883 3.79323
upperback 0.0944058 2.3055 2.19831
thorax -6.2662 1.0247 -0.204605
lowerneck -21.651 -6.72438 -12.1522
upperneck 13.2096 -6.93081 7.91316
head 8.34267 -3.12272 3.68843
rclavicle 4.09496e-014 -1.74931e-014
rhumerus -34.2665 23.1728 -99.1596
rradius 116.64
rwrist -14.6477
rhand -7.83903 22.7113
rfingers 7.12502
rthumb 18.0637 -6.46987
lclavicle 4.09496e-014 -1.74931e-014
lhumerus -58.4169 -4.35655 96.3696
lradius 108.842
lwrist 24.4759
lhand -6.31703 9.97663
lfingers 7.12502
lthumb 19.5276 39.016
rfemur 1.66705 0.103185 33.3845
rtibia 29.633
rfoot -7.39638 -4.47797
rtoes -6.43616
lfemur -40.1135 4.51729 -6.30674
ltibia 65.9907
lfoot -7.19971 -1.50494
ltoes -16.8954
138
root 1.743 16.8114 8.096 -16.3557 -82.0599 28.9481
lowerback 11.5948 1.31561 3.4537
upperback -0.262621 2.34611 2.59268
thorax -6.76509 1.05086 0.38727
lowerneck -21.4984 -6.56845 -12.0908
upperneck 13.7312 -6.70245 7.50213
head 8.45189 -3.06072 3.57537
rclavicle -3.53837e-014 -2.70347e-014
rhumerus -34.9665 23.877 -99.1427
rradius 116.416
rwrist -14.9693
rhand -7.02189 21.9624
rfingers 7.12502
rthumb 18.8498 -7.14427
lclavicle -3.53837e-014 -2.70347e-014
lhumerus -58.8167 -3.35833 96.1906
lradius 108.735
lwrist 24.5112
lhand -6.17386 9.75305
lfingers 7.12502
lthumb 19.6652 38.7784
rfemur 3.26932 0.934307 33.5426
rtibia 28.0058
rfoot -4.48812 -3.94534
rtoes -4.04674
lfemur -40.7332 4.31631 -5.74799
ltibia 63.0073
lfoot -6.96831 -3.20298
ltoes -12.344
139
root 1.37194 16.9263 8.19331 -26.648 -82.3154 38.9702
lowerback 11.625 1.61697 2.19108
upperback -0.345885 2.5701 2.27431
thorax -6.90617 1.20205 0.719565
lowerneck -21.3763 -6.48973 -12.1294
upperneck 14.2788 -6.62571 7.49841
head 8.61168 -3.03469 3.59668
rclavicle -1.19271e-015 -1.59028e-015
rhumerus -35.6778 24.2354 -99.1352
rradius 116
rwrist -14.9849
rhand -6.49775 21.6719
rfingers 7.12502
rthumb 19.3538 -7.38502
lclavicle -1.19271e-015 -1.59028e-015
lhumerus -59.2261 -2.6365 95.8517
lradius 108.739
lwrist 24.2977
lhand -7.19675 9.72602
lfingers 7.12502
lthumb 18.6816 38.849
rfemur 5.52075 1.55753 31.6235
rtibia 26.2546
rfoot -1.17196 -2.83324
rtoes -3.9882
lfemur -40.0326 3.8626 -7.19725
ltibia 59.5053
lfoot -6.99272 -3.98499
ltoes -10.1811
140
root 1.04395 16.9801 8.28408 -15.1193 -82.5536 27.6726
lowerback 11.1469 1.55181 3.75846
upperback -0.61273 2.69286 2.51759
thorax -6.86173 1.20665 0.087613
lowerneck -20.5589 -6.77408 -12.7154
upperneck 13.8532 -7.1164 8.45576
head 8.44238 -3.21614 3.95895
rclavicle -1.19271e-015 -7.95139e-015
rhumerus -36.1284 24.13 -99.0201
rradius 115.452
rwrist -14.8976
rhand -7.15866 22.0034
rfingers 7.12502
rthumb 18.7182 -7.11597
lclavicle -1.19271e-015 -7.95139e-015
lhumerus -59.4363 -2.57479 95.7818
lradius 108.738
lwrist 23.4591
lhand -8.58844 9.86842
lfingers 7.12502
lthumb 17.3426 39.1147
rfemur 6.45686 1.4616 32.718
rtibia 24.6113
rfoot 3.0239 -1.69657
rtoes -4.69532
lfemur -41.1843 3.46614 -6.07427
ltibia 56.1511
lfoot -6.37708 -5.05068
ltoes -14.5554
141
root 0.678749 17.0559 8.38414 -17.7464 -82.7278 30.3253
lowerback 10.6491 1.79451 3.71931
upperback -0.687811 2.97385 2.22909
thorax -6.63833 1.34726 -0.224838
lowerneck -21.2564 -6.72323 -11.8122
upperneck 15.0685 -7.08937 7.43666
head 8.89601 -3.24959 3.46016
rclavicle -9.14409e-015 -1.59028e-015
rhumerus -36.5875 23.7406 -98.9529
rradius 114.802
rwrist -14.563
rhand -7.77428 22.4531
rfingers 7.12502
rthumb 18.126 -6.72232
lclavicle -9.14409e-015 -1.59028e-015
lhumerus -59.5378 -2.85616 95.6604
lradius 108.731
lwrist 23.0297
lhand -11.7424 9.96988
lfingers 7.12502
lthumb 14.3053 39.4571
rfemur 7.8816 1.57593 31.7671
rtibia 23.0717
rfoot 7.3922 -0.0813861
rtoes -6.46121
lfemur -41.008 2.70819 -6.75046
ltibia 52.3808
lfoot -6.2325 -5.65016
ltoes -16.6931
